<svg id="Shape" xmlns="http://www.w3.org/2000/svg" viewBox="0 0 480 480"><defs><style>.cls-1{fill:#622263;}.cls-2{fill:#f1b73b;}</style></defs><title>shape_siyara_dz</title><path id="retro_droite" data-name="retro droite" class="cls-1" d="M389.92,205.69,398.1,197s31.59,4.27,40.88,0c2.76-1.27,6.86-6.37,7.91-9.22,2.15-5.82,2.41-19.08,0-24.8-1.28-3-6.39-8-9.45-9.23-4.4-1.8-14.62-1.77-19,0-7.79,3.13-17.37,18.42-24.26,23.21a55.57,55.57,0,0,1-8.18,4C380.87,183,365.12,188,365.12,188Z"/><path id="retro_gauche" data-name="retro gauche" class="cls-1" d="M82.17,205.69,74,197s-31.59,4.27-40.88,0c-2.76-1.27-6.85-6.37-7.91-9.22-2.15-5.82-2.4-19.08,0-24.8,1.28-3,6.39-8,9.45-9.23,4.41-1.8,14.62-1.77,19,0,7.79,3.13,17.37,18.42,24.27,23.21a55,55,0,0,0,8.17,4c5.1,2.09,14.79,13.74,14.79,13.74Z"/><path id="core_S_top_down" data-name="core S top+ down" class="cls-1" d="M237.33,210.22c30.75.06,123,3.4,123,3.4,17.85,0,39,14.38,44.88,41.86,4.26,19.93,7,39.87-2.79,82.17-1.42,6.12-6.21,10.92-10.92,10.92H83.2c-4.71,0-9.51-4.8-10.92-10.92C66.21,311.4,65,293.76,65.9,279.39H37.47c-1,17.59.8,37.29,7.13,64.66C49,363.13,65.24,377,83.2,377H391.46c18,0,34.19-13.85,38.6-32.93,10-43.41,8.66-67.53,2.89-94.51-8-37.27-38.53-64.32-72.66-64.32,0,0-92.21-2.82-123-2.82s-123,2.82-123,2.82a65,65,0,0,0-11.36,1l0,0h0c2.91-9.7,6.86-21.72,11.79-34.1,10.17-25.54,16.59-34.8,17.24-35.71l.81-1,.4-.9c5-9.32,21.94-17.49,36.29-17.49H305.09c14.35,0,31.31,8.17,36.29,17.49l.41.9.8,1c.59.82,5.89,8.46,14.4,28.75h27.58c-.32-.83-.65-1.66-1-2.5-10.47-26.29-17.73-37.63-20.13-41-11.08-19.59-38.17-30.15-58.37-30.15H169.56c-20.19,0-47.28,10.56-58.36,30.15-2.41,3.39-9.67,14.73-20.13,41a457.2,457.2,0,0,0-18.24,56.93s0,0,0,.06c.83,4.9-5.62,13.93,5.7,13.45,45.13-1.91,63.57-2.61,84.77-2.87C181.81,210,218.82,210.19,237.33,210.22Z"/><circle id="far_gauche" data-name="far gauche" class="cls-1" cx="122.28" cy="273.73" r="29.49"/><circle id="far_droit" data-name="far droit" class="cls-1" cx="350.92" cy="273.73" r="29.49"/><path id="smile" class="cls-2" d="M294.68,288.88H175.93a5.85,5.85,0,0,0-4.79,9.21l6.29,9a29.37,29.37,0,0,0,25.13,14.16h65.5a29.37,29.37,0,0,0,25.12-14.16l6.29-9A5.85,5.85,0,0,0,294.68,288.88Z"/><path id="roue_gauche" data-name="roue gauche" class="cls-1" d="M66.87,357.52h57.67a0,0,0,0,1,0,0v38.31a11.79,11.79,0,0,1-11.79,11.79H78.66a11.79,11.79,0,0,1-11.79-11.79V357.52A0,0,0,0,1,66.87,357.52Z"/><path id="roue_droite" data-name="roue droite" class="cls-1" d="M405.44,357.52v33.35a16.74,16.74,0,0,1-16.74,16.74H364.51a16.73,16.73,0,0,1-16.74-16.74V357.52"/></svg>